<svg width="100%" height="100%" viewBox="0 0 1440 713" fill="red" xmlns="http://www.w3.org/2000/svg">
<path d="M199.68 8.6565C202.815 5.46748 207.955 5.46748 211.09 8.65651L300.045 99.1476C304.748 103.931 312.458 103.931 317.16 99.1476L406.116 8.6565C409.251 5.46748 414.391 5.46749 417.526 8.65651L506.481 99.1476C511.183 103.931 518.894 103.931 523.596 99.1476L612.552 8.6565C615.686 5.46748 620.827 5.46748 623.962 8.65651L712.917 99.1476C717.619 103.931 725.33 103.931 730.032 99.1476L818.987 8.6565C822.122 5.46748 827.263 5.46748 830.398 8.65651L919.353 99.1476C924.055 103.931 931.766 103.931 936.468 99.1476L1025.42 8.6565C1028.56 5.46748 1033.7 5.46748 1036.83 8.65652L1125.79 99.1476C1130.49 103.931 1138.2 103.931 1142.9 99.1476L1231.86 8.6565C1234.99 5.46748 1240.13 5.46748 1243.27 8.65652L1332.22 99.1476C1336.93 103.931 1344.64 103.931 1349.34 99.1476L1442 4.88748V702.545C1442 707.103 1438.2 710.74 1433.64 710.537L5.64393 646.928C1.36835 646.737 -2 643.215 -2 638.936V110V4.79094L93.629 99.3688C98.3512 104.039 105.969 103.985 110.625 99.2491L199.68 8.6565Z" fill="#99FFCC" stroke="black" stroke-width="4" stroke-miterlimit="5.77019" stroke-linejoin="round"/>
</svg>
