<svg width="1440" height="711" viewBox="0 0 1440 711" fill="none" xmlns="http://www.w3.org/2000/svg">
<path d="M1442 640.513C1441.18 640.29 1440.17 640.019 1438.97 639.703C1435.31 638.738 1429.87 637.36 1422.77 635.708C1408.59 632.404 1387.78 628.002 1361.26 623.601C1308.24 614.799 1232.38 606 1141 606C1052.25 606 935.485 625.697 804.725 647.755C800.74 648.427 796.741 649.102 792.73 649.778C657.031 672.655 506.764 697.51 356.893 705.503C207.004 713.497 116.938 704.444 64.4101 693.438C38.15 687.936 21.2892 681.95 11.0339 677.373C5.90687 675.084 2.43236 673.149 0.260317 671.803C-0.777939 671.16 -1.51862 670.651 -2 670.304V2.59107L1442 66.9129L1442 640.513Z" fill="#CCE1FF" stroke="black" stroke-width="4" stroke-miterlimit="5.77019" stroke-linejoin="round"/>
</svg>
