<svg width="82" height="82" viewBox="0 0 82 82" fill="none" xmlns="http://www.w3.org/2000/svg">
<path d="M32.3432 11.7078L31.6361 12.4149L32.3432 13.122L38.3186 19.0972L38.7266 19.5052L39.284 19.3561C39.8302 19.2101 40.405 19.1319 41 19.1319C44.6577 19.1319 47.6227 22.097 47.6227 25.7546C47.6227 26.3493 47.5444 26.9245 47.3984 27.4711L47.2497 28.0283L47.6575 28.4361L55.4696 36.2481L55.8774 36.6559L56.4346 36.5072C56.9812 36.3612 57.5562 36.283 58.151 36.283C61.8087 36.283 64.7737 39.2479 64.7737 42.9056C64.7737 46.5634 61.8087 49.5283 58.151 49.5283C54.4933 49.5283 51.5283 46.5634 51.5283 42.9056C51.5283 42.3108 51.6066 41.7359 51.7525 41.1893L51.9013 40.6321L51.4935 40.2243L45.5184 34.2489L43.8113 32.5416V34.9559V53.4539V54.0307L44.3106 54.3195C46.2927 55.4661 47.6227 57.6066 47.6227 60.0567C47.6227 63.7144 44.6577 66.6794 41 66.6794C37.3422 66.6794 34.3773 63.7144 34.3773 60.0567C34.3773 57.6066 35.7072 55.4661 37.6893 54.3195L38.1886 54.0307V53.4539V32.3575V31.7807L37.6894 31.4919C35.7072 30.3453 34.3773 28.2047 34.3773 25.7546C34.3773 25.1599 34.4556 24.5847 34.6015 24.0381L34.7502 23.4809L34.3424 23.0731L28.3674 17.0978L27.6603 16.3907L26.9532 17.0978L9.14824 34.9028C9.14823 34.9028 9.14822 34.9029 9.14821 34.9029C5.78084 38.27 5.78084 43.7299 9.14821 47.0971C9.14822 47.0971 9.14823 47.0971 9.14824 47.0971L34.9029 72.8518C38.27 76.219 43.7299 76.219 47.0971 72.8518L72.8518 47.0971C76.219 43.7299 76.219 38.27 72.8518 34.9029L47.0971 9.14824C47.0971 9.14823 47.0971 9.14822 47.0971 9.14821C43.7299 5.78084 38.27 5.78084 34.9028 9.14824L32.3432 11.7078ZM51.0729 5.17239L51.78 4.46529L51.0729 5.1724L76.8276 30.927C82.3908 36.4902 82.3908 45.5097 76.8276 51.0729L51.0729 76.8276C45.5097 82.3908 36.4902 82.3908 30.927 76.8276L5.17236 51.0729L4.46525 51.78L5.17236 51.0729C-0.390794 45.5097 -0.390791 36.4902 5.1724 30.927L30.927 5.17236C36.4902 -0.390804 45.5097 -0.390781 51.0729 5.17239Z" fill="#FFDD99" stroke="black" stroke-width="2"/>
</svg>
