<svg width="1440" height="783" viewBox="0 0 1440 783" fill="none" xmlns="http://www.w3.org/2000/svg">
<path d="M191.231 706.87L-4.36443 780.611H-62L-62 90C-62 85.5817 -58.4183 82 -54 82H-40C-33.3726 82 -28 76.6274 -28 70L-28 10C-28 5.58172 -24.4183 2 -20 2L60 2C64.4183 2 68 5.58172 68 10V70C68 76.6274 73.3726 82 80 82L160 82C166.627 82 172 76.6274 172 70V10C172 5.58172 175.582 2 180 2L260 2C264.418 2 268 5.58172 268 10V70C268 76.6274 273.373 82 280 82L360 82C366.627 82 372 76.6274 372 70V10C372 5.58172 375.582 2 380 2L460 2C464.418 2 468 5.58172 468 10V70C468 76.6274 473.373 82 480 82H560C566.627 82 572 76.6274 572 70V10C572 5.58172 575.582 2 580 2L660 2C664.418 2 668 5.58172 668 10V70C668 76.6274 673.373 82 680 82L760 82C766.627 82 772 76.6274 772 70V10C772 5.58172 775.582 2 780 2L860 2C864.418 2 868 5.58172 868 10V70C868 76.6274 873.373 82 880 82L960 82C966.627 82 972 76.6274 972 70V10C972 5.58172 975.582 2 980 2L1060 2C1064.42 2 1068 5.58172 1068 10V70C1068 76.6274 1073.37 82 1080 82L1160 82C1166.63 82 1172 76.6274 1172 70V10C1172 5.58172 1175.58 2 1180 2L1260 2C1264.42 2 1268 5.58172 1268 10V70C1268 76.6274 1273.37 82 1280 82H1360C1366.63 82 1372 76.6274 1372 70V10C1372 5.58172 1375.58 2 1380 2L1438 2C1442.42 2 1446 5.58172 1446 10V80V779.686L1265.49 709.378C1150.1 664.43 1021.99 664.671 906.763 710.054C791.885 755.3 663.394 755.016 548.51 709.768C434.097 664.706 306.299 663.488 191.231 706.87Z" fill="#F6CCFF" stroke="black" stroke-width="4" stroke-miterlimit="5.77019" stroke-linejoin="round"/>
</svg>
