<svg width="82" height="82" xmlns="http://www.w3.org/2000/svg">
 <g>
  <title>Layer 1</title>
  <g stroke="null" id="svg_5" stroke-width="2">
   <path stroke="#000000" fill="#006880" d="m78.03444,9.44792l-16.39192,-7.95199a4.95226,4.99005 0 0 0 -5.65444,0.96822l-53.65894,49.29318a3.31477,3.34007 0 0 0 -0.22743,4.71791c0.07107,0.07734 0.14214,0.15182 0.2189,0.22057l4.38084,4.01037a3.31193,3.3372 0 0 0 4.23302,0.18906l64.63237,-49.38484a3.29203,3.31715 0 0 1 5.28203,2.64112l0,-0.19193a4.96932,5.00723 0 0 0 -2.81443,-4.51167l0,0z" id="svg_6"/>
   <path stroke="#000000" fill="#006880" d="m78.03444,72.29615l-16.39192,7.95486a4.96079,4.99864 0 0 1 -5.65444,-0.96822l-53.65894,-49.29604a3.31477,3.34007 0 0 1 -0.22743,-4.71791c0.07107,-0.07734 0.14214,-0.15182 0.2189,-0.22057l4.38084,-4.01037a3.31193,3.3372 0 0 1 4.24154,-0.18906l64.62384,49.38484a3.29203,3.31715 0 0 0 5.28203,-2.64112l0,0.20625a4.97216,5.0101 0 0 1 -2.81443,4.49734l0,0z" id="svg_7"/>
   <path stroke="#000000" fill="#006880" d="m61.64252,80.25101a4.96079,4.99864 0 0 1 -5.65444,-0.96822a2.91393,2.93616 0 0 0 4.96079,-2.0768l0,-72.66791a2.91109,2.9333 0 0 0 -4.97216,-2.07393a4.95794,4.99577 0 0 1 5.65444,-0.97108l16.38907,7.94053a4.96932,5.00723 0 0 1 2.82864,4.51167l0,53.85354a4.96932,5.00723 0 0 1 -2.81727,4.51453l-16.38907,7.93767l0,0z" id="svg_8"/>
  </g>
 </g>

</svg>