<svg width="1440" height="844" viewBox="0 0 1440 844" fill="none" xmlns="http://www.w3.org/2000/svg">
<path d="M-2 841.45V65.6245C-1.52527 65.8417 -0.99231 66.082 -0.400635 66.3436C2.59436 67.6678 7.09216 69.5398 13.1417 71.7504C25.241 76.1716 43.546 81.9467 68.4469 87.4036C118.25 98.3176 194.426 107.956 300.095 102.948C387.833 98.7894 493 80.8206 607.517 61.2542C630.9 57.259 654.673 53.1971 678.767 49.1726C820.943 25.4244 974.428 2.94995 1125.5 2.94995C1276.7 2.94995 1357.17 11.574 1399.79 20.1606C1421.1 24.4539 1432.88 28.7233 1439.27 31.8553C1442.46 33.4191 1444.28 34.6855 1445.27 35.5071C1445.6 35.7794 1445.84 36.0015 1446 36.168V833.45C1446 837.868 1442.42 841.45 1438 841.45H-2Z" fill="#FFDD99" stroke="black" stroke-width="4" stroke-miterlimit="5.77019" stroke-linejoin="round"/>
</svg>
